HIERARCHY
ROOT COM
{
	OFFSET 0.000000 0.000000 0.000000 
	CHANNELS 6 Xposition Yposition Zposition Zrotation Xrotation Yrotation
	JOINT Spine
	{
		OFFSET 0.000000 0.078370 -0.028498 
		CHANNELS 3 Zrotation Xrotation Yrotation
		JOINT Spine1
		{
			OFFSET 0.000000 0.111469 -0.000097 
			CHANNELS 3 Zrotation Xrotation Yrotation
			JOINT Spine2
			{
				OFFSET 0.000000 0.121511 -0.000092 
				CHANNELS 3 Zrotation Xrotation Yrotation
				JOINT Neck
				{
					OFFSET 0.000000 0.119873 -0.000040 
					CHANNELS 3 Zrotation Xrotation Yrotation
					JOINT Head
					{
						OFFSET 0.000000 0.051518 0.000000 
						CHANNELS 3 Zrotation Xrotation Yrotation
						End Site
						{
							OFFSET 0.000000 0.000000 0.000000 
						}
					}
					JOINT Leftcollar
					{
						OFFSET 0.033237 -0.012095 0.015552 
						CHANNELS 3 Zrotation Xrotation Yrotation
						JOINT LeftArm
						{
							OFFSET 0.131452 0.000000 0.000000 
							CHANNELS 3 Zrotation Xrotation Yrotation
							JOINT LeftForeArm
							{
								OFFSET 0.000000 -0.219203 0.000000 
								CHANNELS 3 Zrotation Xrotation Yrotation
								JOINT LeftHand
								{
									OFFSET 0.000000 -0.193166 0.000000 
									CHANNELS 3 Zrotation Xrotation Yrotation
									End Site
									{
										OFFSET -0.023329 -0.077705 -0.004495 
									}
								}
							}
						}
					}
					JOINT RightCollar
					{
						OFFSET -0.033237 -0.012094 0.015552 
						CHANNELS 3 Zrotation Xrotation Yrotation
						JOINT RightArm
						{
							OFFSET -0.131452 0.000000 0.000000 
							CHANNELS 3 Zrotation Xrotation Yrotation
							JOINT RightForeArm
							{
								OFFSET 0.000000 -0.219203 0.000000 
								CHANNELS 3 Zrotation Xrotation Yrotation
								JOINT RightHand
								{
									OFFSET 0.000000 -0.193166 0.000000 
									CHANNELS 3 Zrotation Xrotation Yrotation
									End Site
									{
										OFFSET 0.023329 -0.077705 -0.004495 
									}
								}
							}
						}
					}
				}
			}
		}
	}
	JOINT LeftUpLeg
	{
		OFFSET 0.077678 0.000000 0.000000 
		CHANNELS 3 Zrotation Xrotation Yrotation
		JOINT LeftLeg
		{
			OFFSET 0.000000 -0.359164 0.000000 
			CHANNELS 3 Zrotation Xrotation Yrotation
			JOINT LeftFoot
			{
				OFFSET 0.000000 -0.337214 0.000000 
				CHANNELS 3 Zrotation Xrotation Yrotation
				JOINT LeftToe
				{
					OFFSET 0.000000 0.000000 0.122098 
					CHANNELS 3 Zrotation Xrotation Yrotation
					End Site
					{
						OFFSET 0.000000 0.000000 0.000000 
					}
				}
			}
		}
	}
	JOINT RightUpLeg
	{
		OFFSET -0.077678 0.000000 0.000000 
		CHANNELS 3 Zrotation Xrotation Yrotation
		JOINT RightLeg
		{
			OFFSET 0.000000 -0.359164 0.000000 
			CHANNELS 3 Zrotation Xrotation Yrotation
			JOINT RightFoot
			{
				OFFSET 0.000000 -0.337214 0.000000 
				CHANNELS 3 Zrotation Xrotation Yrotation
				JOINT RightToe
				{
					OFFSET 0.000000 0.000000 0.122098 
					CHANNELS 3 Zrotation Xrotation Yrotation
					End Site
					{
						OFFSET 0.000000 0.000000 0.000000 
					}
				}
			}
		}
	}
}
MOTION
Frames: 13
Frame Time: 0.033333
0.116098 0.722534 0.034452 10.702000 348.229889 206.240997 5.297300 344.626495 0.000000 0.000000 360.000000 3.999750 0.000000 0.000000 0.000000 0.000000 0.000000 0.000000 0.000000 0.000000 0.000000 0.000000 0.000000 0.000000 20.292500 3.263070 339.588196 0.000000 332.955292 0.000000 360.000000 0.000000 90.000000 0.000000 0.000000 0.000000 338.458099 355.494598 31.773701 0.000000 335.029694 0.000000 360.000000 0.000000 270.000000 12.166300 323.058105 9.017520 0.000000 65.144501 360.000000 360.000000 0.460477 359.096313 0.000000 0.000000 0.000000 10.727800 340.360413 348.727203 0.000000 16.123301 360.000000 0.000000 356.722931 12.093600 360.000000 360.000000 360.000000 
0.107815 0.722686 0.011532 10.538100 347.702393 205.916000 4.792210 344.586792 0.000000 360.000000 0.000000 5.352700 0.000000 0.000000 0.000000 0.000000 0.000000 0.000000 0.000000 0.000000 0.000000 0.000000 0.000000 0.000000 19.521601 6.234810 339.751892 0.000000 335.603302 360.000000 360.000000 360.000000 90.000000 0.000000 0.000000 0.000000 337.101501 351.253967 30.021500 0.000000 333.685394 360.000000 360.000000 0.000000 270.000000 11.809300 319.525208 9.368520 0.000000 59.035301 360.000000 359.994324 358.427277 359.095764 0.000000 0.000000 0.000000 10.617900 342.704895 348.264801 0.000000 14.586100 360.000000 0.000000 355.825348 12.883500 0.000000 0.000000 0.000000 
0.099438 0.721287 -0.010977 10.658500 347.279388 205.626999 4.593710 344.655701 360.000000 0.000000 360.000000 6.665470 360.000000 360.000000 0.000000 360.000000 360.000000 0.000000 360.000000 360.000000 0.000000 360.000000 360.000000 0.000000 18.827400 8.739230 340.260498 360.000000 338.430603 360.000000 0.000000 0.000000 90.000000 360.000000 360.000000 0.000000 335.661285 347.444092 27.222099 0.000000 331.833099 0.000000 0.000000 0.000000 270.000000 11.898100 316.699799 10.506600 360.000000 51.335701 0.000000 360.000000 357.944458 359.704865 0.000000 0.000000 360.000000 10.731200 344.821411 347.765594 0.000000 13.485000 0.000000 0.000000 354.750549 13.835300 0.000000 0.000000 0.000000 
0.090305 0.718850 -0.034491 10.628100 347.175110 205.643005 4.242820 345.061890 0.000000 360.000000 360.000000 7.625770 0.000000 360.000000 0.000000 0.000000 0.000000 0.000000 0.000000 0.000000 0.000000 0.000000 0.000000 0.000000 18.393000 10.801400 341.096985 0.000000 341.290497 0.000000 0.000000 0.000000 90.000000 0.000000 0.000000 0.000000 334.294189 344.343414 24.244801 0.000000 329.863708 360.000000 360.000000 0.000000 270.000000 11.358000 315.285492 12.037400 360.000000 41.638802 0.000000 360.000000 358.378204 0.400806 360.000000 0.000000 360.000000 10.723200 347.099304 347.581207 360.000000 12.955000 360.000000 0.000000 353.455688 14.093100 0.000000 0.000000 360.000000 
0.080259 0.715392 -0.058375 10.815100 346.596405 205.341003 4.067260 344.822510 360.000000 0.000000 360.000000 8.708190 0.000000 0.000000 0.000000 0.000000 0.000000 0.000000 0.000000 0.000000 0.000000 0.000000 0.000000 0.000000 17.993000 12.740400 342.024109 360.000000 343.781799 360.000000 0.000000 360.000000 90.000000 0.000000 0.000000 0.000000 332.864685 341.665802 22.266899 0.000000 327.951202 360.000000 360.000000 0.000000 270.000000 10.931000 314.479095 15.335500 360.000000 30.529499 0.000000 0.000000 359.350128 358.687439 0.000000 0.000000 0.000000 10.699600 348.800293 347.286499 360.000000 12.730200 0.000000 0.000000 352.299530 14.713400 360.000000 0.000000 360.000000 
0.069092 0.710816 -0.083702 11.108800 345.878387 205.156006 3.926100 344.174408 360.000000 0.000000 360.000000 9.687020 0.000000 0.000000 0.000000 0.000000 0.000000 0.000000 0.000000 0.000000 0.000000 0.000000 0.000000 0.000000 17.865200 14.551700 342.300415 360.000000 345.626404 0.000000 360.000000 0.000000 90.000000 0.000000 0.000000 0.000000 331.811707 339.629089 20.117300 0.000000 326.345886 0.000000 360.000000 0.000000 270.000000 9.421560 314.519592 19.945200 0.000000 17.915701 0.000000 360.000000 0.219048 355.453705 360.000000 0.000000 360.000000 10.584700 350.548248 346.587006 360.000000 12.363500 0.000000 360.000000 350.975677 15.820600 0.000000 360.000000 0.000000 
0.056207 0.705659 -0.109959 11.488300 344.934296 204.802994 3.985170 343.130310 0.000000 360.000000 360.000000 10.749000 0.000000 0.000000 0.000000 0.000000 0.000000 0.000000 0.000000 0.000000 0.000000 0.000000 0.000000 0.000000 17.668100 16.186800 343.554413 360.000000 346.850891 0.000000 360.000000 0.000000 90.000000 0.000000 0.000000 0.000000 330.942291 338.426697 18.819099 0.000000 324.420502 0.000000 360.000000 360.000000 270.000000 6.996290 314.548187 23.423300 360.000000 6.926970 360.000000 360.000000 0.836678 351.456421 360.000000 360.000000 0.000000 10.221300 352.202789 345.307312 0.000000 12.014700 360.000000 360.000000 350.071136 17.613899 0.000000 0.000000 0.000000 
0.041877 0.700003 -0.137327 11.796300 344.584198 204.358994 4.337440 342.610687 0.000000 0.000000 0.000000 11.590900 0.000000 0.000000 0.000000 0.000000 0.000000 0.000000 0.000000 0.000000 0.000000 0.000000 0.000000 0.000000 17.452200 17.459000 344.170288 360.000000 347.788300 360.000000 0.000000 0.000000 90.000000 0.000000 0.000000 0.000000 330.287811 337.668610 18.088200 0.000000 322.757507 360.000000 360.000000 0.000000 270.000000 5.694380 314.307800 22.836300 0.000000 2.983220 0.000000 360.000000 358.769196 349.896301 360.000000 0.000000 360.000000 9.758350 354.149017 343.779388 360.000000 12.548800 0.000000 360.000000 349.396698 19.893700 0.000000 0.000000 0.000000 
0.027679 0.695063 -0.166070 11.508600 344.028198 204.350998 3.604210 341.966309 0.000000 360.000000 360.000000 11.580600 0.000000 0.000000 0.000000 0.000000 360.000000 360.000000 0.000000 360.000000 360.000000 0.000000 360.000000 360.000000 17.481199 18.027700 344.817596 0.000000 348.585602 0.000000 360.000000 360.000000 90.000000 0.000000 360.000000 360.000000 330.662109 337.585999 17.650999 0.000000 321.677399 0.000000 360.000000 0.000000 270.000000 5.159170 312.668610 21.167200 360.000000 8.892490 360.000000 360.000000 359.889374 350.801544 0.000000 360.000000 360.000000 8.787520 355.799927 343.676208 0.000000 13.772700 360.000000 360.000000 349.421387 20.143900 360.000000 0.000000 360.000000 
0.010382 0.691777 -0.197595 9.995830 343.637085 203.804001 2.023890 341.599396 0.000000 360.000000 0.000000 11.881100 0.000000 0.000000 0.000000 0.000000 0.000000 0.000000 0.000000 0.000000 0.000000 0.000000 0.000000 0.000000 17.472401 18.148001 345.068298 360.000000 349.144897 360.000000 0.000000 0.000000 90.000000 0.000000 0.000000 0.000000 331.556091 338.680511 17.143499 0.000000 320.896210 0.000000 0.000000 360.000000 270.000000 3.141570 312.295013 16.509501 360.000000 15.001100 360.000000 360.000000 0.834409 354.545532 360.000000 0.000000 360.000000 6.427860 357.759308 342.986206 0.000000 16.114201 360.000000 0.000000 350.311554 21.435699 0.000000 360.000000 0.000000 
-0.007804 0.690139 -0.230487 8.361240 342.806000 202.893997 0.271088 340.607086 0.000000 360.000000 0.000000 12.056700 360.000000 0.000000 0.000000 0.000000 360.000000 0.000000 360.000000 360.000000 0.000000 360.000000 360.000000 0.000000 17.367500 17.955400 345.894409 0.000000 349.335510 0.000000 360.000000 0.000000 90.000000 360.000000 360.000000 0.000000 332.734192 340.557800 18.556700 0.000000 320.656799 360.000000 360.000000 0.000000 270.000000 0.850697 312.251007 11.774700 0.000000 20.322300 0.000000 0.000000 2.074270 359.054535 360.000000 360.000000 0.000000 3.611510 358.586975 343.120514 0.000000 19.982401 360.000000 0.000000 352.701843 22.189800 0.000000 360.000000 0.000000 
-0.026150 0.690673 -0.263636 6.905460 342.203888 202.768997 358.450623 339.662415 0.000000 360.000000 0.000000 10.861900 0.000000 0.000000 0.000000 0.000000 0.000000 0.000000 0.000000 0.000000 0.000000 0.000000 0.000000 0.000000 17.239100 17.214500 346.293915 0.000000 349.219208 0.000000 360.000000 0.000000 90.000000 0.000000 0.000000 0.000000 334.497498 342.586090 20.515699 0.000000 321.437897 360.000000 360.000000 0.000000 270.000000 358.419312 312.364899 8.051690 0.000000 26.184200 0.000000 360.000000 1.064500 1.118810 360.000000 0.000000 360.000000 0.785526 358.031403 343.453796 0.000000 26.456400 360.000000 0.000000 357.156738 22.114201 0.000000 0.000000 0.000000 
-0.043652 0.693312 -0.294784 5.346280 342.424194 202.919998 356.799622 339.916107 360.000000 0.000000 0.000000 8.660060 0.000000 0.000000 0.000000 0.000000 360.000000 360.000000 0.000000 0.000000 0.000000 0.000000 0.000000 0.000000 17.052099 15.723700 345.520691 0.000000 348.538605 0.000000 360.000000 0.000000 90.000000 0.000000 0.000000 0.000000 336.351501 344.327698 23.250700 0.000000 322.891510 0.000000 360.000000 0.000000 270.000000 356.450073 314.432007 7.602960 360.000000 29.735001 360.000000 0.001131 358.940308 0.471137 360.000000 0.000000 360.000000 357.962646 356.058472 344.229797 360.000000 36.293999 0.000000 0.000000 3.624880 20.724501 360.000000 360.000000 0.000000 
